<?xml version="1.0" encoding="utf-8"?>
<!-- Generator: Adobe Illustrator 16.0.4, SVG Export Plug-In . SVG Version: 6.00 Build 0)  -->
<!DOCTYPE svg PUBLIC "-//W3C//DTD SVG 1.1//EN" "http://www.w3.org/Graphics/SVG/1.1/DTD/svg11.dtd">
<svg version="1.1" id="Layer_1" xmlns="http://www.w3.org/2000/svg" xmlns:xlink="http://www.w3.org/1999/xlink" x="0px" y="0px"
	 width="1240px" height="360px" viewBox="0 0 1240 360" enable-background="new 0 0 1240 360" xml:space="preserve">
<g>
	<polygon points="11.671,52.982 26.633,236.705 462.309,209.32 453.674,50.921 	"/>
	<polygon points="218.868,185.682 245.603,297.801 527.79,262.045 526.616,159.601 	"/>
	<polygon points="580.591,250.48 504.479,328.045 526.151,159.688 	"/>
	<g>
		<g>
			<path fill="#FFFFFF" d="M367.854,143.309c-2.055-2.741-3.237-6.315-3.544-10.725c-0.756-10.77,2.594-16.416,10.052-16.937
				c3.471-0.243,6.316,0.923,8.538,3.493c2.22,2.57,3.496,6.275,3.834,11.112c0.383,5.504-0.374,9.616-2.284,12.337
				c-1.911,2.721-4.542,4.198-7.899,4.434C372.812,147.284,369.912,146.048,367.854,143.309 M398.312,151.562
				c5.304-5.745,7.64-13.163,7.005-22.256c-0.645-9.21-4.025-16.258-10.128-21.146c-6.108-4.887-13.357-7.037-21.745-6.45
				c-8.352,0.582-15.218,3.722-20.605,9.412c-5.385,5.689-7.756,13.141-7.115,22.349c0.645,9.211,4.029,16.257,10.157,21.145
				c6.123,4.884,13.362,7.036,21.714,6.454C386.1,160.473,393.009,157.306,398.312,151.562 M302.467,147.881
				c-2.056-2.738-3.239-6.312-3.544-10.723c-0.756-10.771,2.593-16.417,10.052-16.939c3.471-0.241,6.317,0.925,8.537,3.493
				c2.222,2.571,3.496,6.276,3.834,11.113c0.383,5.503-0.374,9.617-2.283,12.336c-1.91,2.721-4.542,4.2-7.897,4.437
				C307.422,151.858,304.518,150.621,302.467,147.881 M332.924,156.134c5.303-5.745,7.64-13.162,7.006-22.254
				c-0.646-9.212-4.02-16.258-10.127-21.147c-6.111-4.885-13.359-7.038-21.747-6.448c-8.353,0.581-15.219,3.721-20.608,9.41
				c-5.385,5.691-7.755,13.142-7.111,22.351c0.644,9.21,4.026,16.256,10.153,21.145c6.126,4.884,13.363,7.035,21.717,6.452
				C320.712,165.046,327.621,161.877,332.924,156.134 M255.044,151.58c-1.896,2.604-4.464,4.019-7.703,4.245
				c-3.513,0.243-6.418-0.922-8.715-3.508c-2.3-2.584-3.605-6.12-3.917-10.61c-0.351-4.995,0.448-8.827,2.399-11.493
				c1.951-2.666,4.625-4.117,8.019-4.354c3.358-0.234,6.145,0.806,8.366,3.121c2.22,2.315,3.503,5.952,3.852,10.906
				C257.707,145.081,256.938,148.975,255.044,151.58 M235.89,180.035l-1.127-16.097c5.325,4.374,11.012,6.348,17.062,5.926
				c7.414-0.52,13.153-3.687,17.217-9.498c4.064-5.815,5.803-12.915,5.219-21.309c-0.554-7.921-3.196-14.707-7.924-20.356
				c-4.731-5.648-10.839-8.213-18.333-7.688c-6.206,0.433-11.64,3.49-16.302,9.169l-0.497-7.113l-25.493,1.783l0.915,13.056
				l7.404-0.521l3.771,53.915l-7.317,0.514l0.911,13.053l33.431-2.337l-0.915-13.054L235.89,180.035z M166.355,174.544l-0.197-2.839
				c2.691,2.579,7.41,3.627,14.161,3.157c7.261-0.505,12.748-2.664,16.46-6.474c3.712-3.811,5.377-8.485,4.988-14.027
				c-0.271-3.901-1.551-7.175-3.832-9.818c-2.284-2.645-5.206-4.451-8.764-5.42c-3.556-0.965-8.871-1.81-15.94-2.529
				c-4.463-0.472-7.253-0.955-8.366-1.444c-1.114-0.491-1.705-1.284-1.784-2.376c-0.201-2.887,2.314-4.514,7.542-4.879
				c7.104-0.495,11.379,1.186,12.824,5.043l12.938-0.903l-1.15-16.449l-12.937,0.905l0.136,1.96
				c-4.579-1.581-9.427-2.192-14.54-1.837c-6.321,0.441-11.284,2.407-14.881,5.892c-3.601,3.486-5.237,7.57-4.909,12.248
				c0.349,4.994,2.661,8.861,6.927,11.6c4.273,2.738,11.044,4.531,20.321,5.379c4.497,0.435,7.54,1.01,9.12,1.724
				c1.577,0.713,2.419,1.811,2.522,3.292c0.115,1.602-0.626,2.975-2.209,4.126c-1.589,1.148-3.865,1.827-6.828,2.035
				c-3.435,0.239-6.381-0.349-8.833-1.765c-2.45-1.418-3.828-3.447-4.131-6.091l-13.228,0.923l1.365,19.494L166.355,174.544z
				 M141.945,176.253l-1.58-22.598l-15.571,1.089l0.62,8.844l-25.231,1.761l-1.377-19.699l20.371-1.425l-0.962-13.754l-20.372,1.423
				l-1.429-20.459l25.23-1.762l0.649,9.281l15.568-1.091l-1.61-23.035l-70.098,4.904l0.961,13.754l8.108-0.567l4.742,67.806
				L141.945,176.253z"/>
		</g>
		<g>
			<path fill="#FFFFFF" d="M507.898,217.949c-5.256,7.133-9.178,11.129-11.488,11.414c-0.887,0.107-1.696-1.324-1.934-3.277
				c-0.296-2.396,0.083-8.125,0.823-13.082l1.915-12.312l-7.195,0.887c-1.033,5.531-1.828,10.768-2.263,16.047
				c-4.737,9.145-10.006,13.936-11.871,14.166c-1.245,0.154-1.951-1.203-2.364-4.576c-0.61-4.973,0.205-11.561,2.738-23.949
				l-7.103,0.873c-2.802,11.697-3.413,17.723-2.647,23.934c0.979,7.994,3.046,11.615,6.333,11.213
				c4.615-0.568,10.385-5.691,14.795-13.084c1.102,8.246,2.604,10.947,5.712,10.564c4.442-0.545,9.974-4.648,15.452-11.453
				L507.898,217.949z M467.144,222.953c-5.251,7.133-9.178,11.129-11.486,11.412c-0.886,0.109-1.698-1.322-1.935-3.277
				c-0.296-2.398,0.087-8.119,0.83-13.08l1.909-12.312l-7.188,0.881c-1.032,5.537-1.835,10.77-2.264,16.053
				c-4.736,9.145-10.007,13.936-11.872,14.164c-1.242,0.154-1.95-1.203-2.362-4.574c-0.612-4.973,0.198-11.561,2.733-23.949
				l-7.103,0.871c-2.797,11.699-3.413,17.723-2.645,23.943c0.979,7.986,3.043,11.609,6.329,11.203
				c4.621-0.564,10.386-5.688,14.799-13.08c1.103,8.244,2.607,10.943,5.71,10.564c4.441-0.549,9.978-4.648,15.451-11.449
				L467.144,222.953z M395.912,248.369c-0.669-3.25-1.438-7.299-2.017-12.008c-0.218-1.775-0.34-2.75-0.406-4.816l9.007,9.529
				c4.159,4.535,5.712,6.148,8.727,5.777c3.642-0.447,7.955-3.5,16.073-11.529l-0.909-7.367l-1.498,1.717
				c-3.659,3.963-7.656,8.146-10.852,9.986c-0.513,0.24-0.944,0.385-1.296,0.43c-1.333,0.16-2.165-0.729-4.742-3.387l-5.615-6.068
				l17.642-15.596l-4.206-3.447l-21.659,18.879c0.726-1.441,1.167-2.215,2.445-4.354c4.978-8.633,9.143-17.258,10.573-21.758
				c1.285-4.215,1.726-7.242,1.367-10.17c-0.558-4.529-3.345-7.432-6.897-6.994c-3.376,0.414-6.754,3.713-8.83,8.832
				c-5.027,11.883-7.596,29.141-6.147,40.951c0.174,1.422,1.212,8.414,2.225,12.256L395.912,248.369z M393.347,222.371
				c0.82-8.756,2.541-19.689,5.611-26.283c0.775-1.719,1.497-2.439,2.39-2.547c0.975-0.122,1.812,0.857,1.994,2.277
				C403.927,200.611,400.475,209.959,393.347,222.371 M356.137,253.258c-0.673-3.254-1.438-7.305-2.016-12.01
				c-0.219-1.779-0.34-2.758-0.413-4.82l9.014,9.529c4.161,4.537,5.711,6.148,8.732,5.775c3.637-0.443,7.946-3.496,16.067-11.525
				l-0.907-7.369l-1.504,1.717c-3.654,3.965-7.646,8.152-10.849,9.986c-0.509,0.242-0.94,0.385-1.3,0.43
				c-1.333,0.164-2.162-0.729-4.743-3.381l-5.607-6.072l17.642-15.598l-4.207-3.447l-21.657,18.885
				c0.726-1.443,1.168-2.217,2.438-4.357c4.979-8.633,9.149-17.254,10.58-21.758c1.284-4.217,1.727-7.24,1.362-10.17
				c-0.558-4.531-3.345-7.432-6.894-6.998c-3.375,0.417-6.753,3.717-8.828,8.84c-5.033,11.879-7.598,29.139-6.148,40.949
				c0.175,1.42,1.211,8.412,2.226,12.252L356.137,253.258z M353.572,227.254c0.82-8.75,2.542-19.689,5.605-26.283
				c0.781-1.719,1.504-2.438,2.391-2.549c0.975-0.117,1.824,0.861,1.992,2.279C364.151,205.496,360.704,214.84,353.572,227.254
				 M347.727,237.615c-3.214,3.91-9.165,11.221-12.011,11.568c-1.153,0.143-1.741-0.959-2.11-3.977
				c-0.61-4.971-0.033-10.541,2.27-21.908l0.557-2.775l-7.276,0.896c-2.401,9.125-3.405,17.811-2.629,24.117
				c0.63,5.148,2.084,9.654,3.463,10.568c0.771,0.445,1.605,0.613,2.672,0.486c4.081-0.506,8.397-3.561,14.533-10.082
				c0.801-0.816,1.044-1.027,1.435-1.525L347.727,237.615z M335.013,201.594c-4.086,0.498-3.957,7.426-3.85,8.312
				c0.201,1.602,1.165,2.111,3.559,1.816c2.042-0.25,2.812-0.617,3.433-1.416c0.915-1.371,1.654-4.889,1.42-6.752
				C339.381,201.959,337.763,201.256,335.013,201.594 M328.191,240.014c-3.214,3.908-9.162,11.219-12.004,11.568
				c-1.157,0.141-1.746-0.959-2.109-3.977c-0.615-4.975-0.033-10.541,2.265-21.91l0.562-2.771l-7.282,0.895
				c-2.396,9.123-3.404,17.811-2.628,24.113c0.633,5.15,2.089,9.656,3.463,10.57c0.773,0.445,1.602,0.613,2.669,0.482
				c4.083-0.5,8.397-3.551,14.535-10.074c0.802-0.82,1.049-1.027,1.435-1.527L328.191,240.014z M315.479,203.992
				c-4.081,0.5-3.955,7.426-3.846,8.314c0.195,1.596,1.159,2.109,3.56,1.816c2.042-0.248,2.807-0.615,3.428-1.414
				c0.915-1.375,1.652-4.891,1.424-6.752C319.854,204.355,318.233,203.654,315.479,203.992 M306.884,242.629
				c-5.085,7.023-12.073,12.477-16.515,13.023c-2.841,0.35-4.302-1.273-4.844-5.713c-0.197-2.32-0.195-3.041-0.201-5.297
				c8.093-12.617,16.435-26.891,15.169-37.189c-0.533-4.35-3.522-7.408-6.897-6.994c-2.042,0.252-3.963,1.477-5.843,3.783
				c-3.62,5.039-4.648,9.133-7.09,19.346c-1.499,6.133-3.326,19.156-2.333,27.232c0.501,4.084,2.458,8.262,4.56,9.986
				c1.196,0.936,3.326,1.393,5.545,1.121c6.039-0.742,11.148-3.891,19.355-11.93L306.884,242.629z M285.432,235.98
				c0.764-9.195,2.424-17.693,5.137-25.686c0.791-2.35,1.804-3.646,2.87-3.777c0.978-0.119,1.751,1.049,1.968,2.822
				C296.214,215.91,291.593,224.5,285.432,235.98"/>
		</g>
	</g>
</g>
<g>
	<path fill="#FFFFFF" d="M1098.822,253.65c-4.222,3.948-8.012,5.922-11.377,5.922c-2.149,0-3.907-0.741-5.275-2.228
		s-2.052-3.264-2.052-5.338c0-2.305,0.849-4.063,2.549-5.276c1.7-1.212,3.587-1.817,5.659-1.817c2.619,0,6.118,1.368,10.496,4.105
		V253.65z M1116.941,256.934v-20.699c0-5.237-0.361-9.021-1.085-11.345c-0.724-2.327-1.964-4.467-3.724-6.422
		c-1.759-1.956-4.437-3.548-8.034-4.78c-3.598-1.229-8.13-1.847-13.604-1.847c-14.112,0-23.278,4.477-27.5,13.43l14.602,2.637
		c2.891-2.971,6.37-4.455,10.437-4.455c3.283,0,5.902,0.928,7.857,2.785c1.953,1.856,2.932,4.232,2.932,7.125v3.459
		c-4.925-1.915-9.283-2.874-13.076-2.874c-6.802,0-12.354,1.839-16.652,5.513c-4.301,3.676-6.451,8.229-6.451,13.662
		c0,5.395,2.041,9.696,6.128,12.9c4.084,3.205,8.943,4.809,14.572,4.809c5.433,0,10.593-1.77,15.479-5.308v4.486h27.267v-13.076
		H1116.941z M1019.418,270.01v-2.846c2.503,2.759,7.134,4.137,13.896,4.137c7.271,0,12.892-1.77,16.861-5.308
		c3.967-3.54,5.95-8.083,5.95-13.633c0-3.909-1.047-7.261-3.138-10.058c-2.091-2.796-4.879-4.8-8.355-6.012
		c-3.479-1.209-8.719-2.422-15.717-3.635c-4.416-0.78-7.163-1.453-8.237-2.021c-1.072-0.567-1.611-1.396-1.611-2.492
		c0-2.893,2.617-4.339,7.858-4.339c7.112,0,11.257,1.973,12.428,5.921h12.961v-16.476h-12.961v1.964
		c-4.456-1.896-9.244-2.844-14.364-2.844c-6.332,0-11.415,1.613-15.245,4.836c-3.834,3.223-5.748,7.179-5.748,11.867
		c0,5,2.033,9.017,6.101,12.045c4.064,3.027,10.691,5.287,19.878,6.782c4.456,0.745,7.446,1.528,8.971,2.35
		c1.525,0.82,2.286,1.973,2.286,3.459c0,1.604-0.832,2.924-2.493,3.96c-1.66,1.035-3.978,1.553-6.949,1.553
		c-3.438,0-6.33-0.793-8.676-2.376c-2.347-1.582-3.576-3.7-3.695-6.361h-13.253v19.526H1019.418z M960.83,270.01v-2.846
		c2.503,2.759,7.133,4.137,13.898,4.137c7.269,0,12.891-1.77,16.859-5.308c3.967-3.54,5.95-8.083,5.95-13.633
		c0-3.909-1.047-7.261-3.137-10.058c-2.093-2.796-4.877-4.8-8.356-6.012c-3.479-1.209-8.718-2.422-15.717-3.635
		c-4.415-0.78-7.162-1.453-8.236-2.021c-1.076-0.567-1.612-1.396-1.612-2.492c0-2.893,2.618-4.339,7.856-4.339
		c7.114,0,11.258,1.973,12.43,5.921h12.961v-16.476h-12.961v1.964c-4.456-1.896-9.244-2.844-14.364-2.844
		c-6.333,0-11.414,1.613-15.245,4.836c-3.833,3.223-5.746,7.179-5.746,11.867c0,5,2.031,9.017,6.099,12.045
		c4.066,3.027,10.69,5.287,19.878,6.782c4.454,0.745,7.446,1.528,8.971,2.35c1.524,0.82,2.285,1.973,2.285,3.459
		c0,1.604-0.83,2.924-2.491,3.96c-1.661,1.035-3.978,1.553-6.948,1.553c-3.441,0-6.332-0.793-8.678-2.376
		c-2.346-1.582-3.579-3.7-3.695-6.361h-13.254v19.526H960.83z M914.083,253.65c-4.223,3.948-8.015,5.922-11.375,5.922
		c-2.151,0-3.91-0.741-5.278-2.228c-1.369-1.486-2.052-3.264-2.052-5.338c0-2.305,0.85-4.063,2.549-5.276
		c1.701-1.212,3.587-1.817,5.661-1.817c2.617,0,6.114,1.368,10.495,4.105V253.65z M932.202,256.934v-20.699
		c0-5.237-0.363-9.021-1.083-11.345c-0.727-2.327-1.966-4.467-3.725-6.422c-1.759-1.956-4.438-3.548-8.034-4.78
		c-3.597-1.229-8.133-1.847-13.603-1.847c-14.114,0-23.28,4.477-27.502,13.43l14.601,2.637c2.893-2.971,6.372-4.455,10.436-4.455
		c3.284,0,5.905,0.928,7.857,2.785c1.958,1.856,2.934,4.232,2.934,7.125v3.459c-4.926-1.915-9.286-2.874-13.076-2.874
		c-6.802,0-12.354,1.839-16.654,5.513c-4.299,3.676-6.449,8.229-6.449,13.662c0,5.395,2.044,9.696,6.129,12.9
		c4.083,3.205,8.939,4.809,14.571,4.809c5.433,0,10.594-1.77,15.479-5.308v4.486h27.268v-13.076H932.202z M851.996,256.934v-6.977
		c0-4.692,0.939-8.757,2.814-12.198c1.878-3.439,4.26-5.667,7.155-6.685c2.892-1.016,6.625-1.524,11.197-1.524v-17.122
		c-1.132-0.039-2.11-0.059-2.93-0.059c-4.927,0-9.198,1.515-12.812,4.545c-3.619,3.029-5.933,6.616-6.95,10.76v-14.425h-26.445
		v13.076h9.851v30.608h-10.496v13.076h39.934v-13.076H851.996z M809.072,256.934v-43.685h-26.857v13.076h8.739v25.565
		c-3.634,2.697-6.976,4.046-10.024,4.046c-2.271,0-3.833-0.518-4.694-1.553c-0.859-1.036-1.287-2.961-1.287-5.777v-35.357h-26.565
		v13.076h8.505v26.892c0,5.599,1.553,9.933,4.662,13.007c3.105,3.072,7.395,4.607,12.869,4.607c5.589,0,11.1-1.885,16.535-5.658
		v4.837h27.267v-13.076H809.072z M702.934,235.297c1.096-7.623,4.966-11.436,11.611-11.436c3.559,0,6.366,1.114,8.424,3.342
		c2.055,2.229,3.297,4.926,3.715,8.094H702.934z M717.009,259.572c-3.323,0-6.48-1.075-9.469-3.226
		c-2.992-2.149-4.624-5.804-4.897-10.965h42.276c0-6.02-0.918-11.472-2.754-16.359c-1.837-4.888-5.124-8.972-9.852-12.255
		c-4.731-3.284-10.342-4.927-16.829-4.927c-8.951,0-16.322,2.933-22.105,8.797c-5.786,5.862-8.679,13.175-8.679,21.93
		c0,8.599,2.804,15.54,8.415,20.815c5.607,5.279,13.418,7.918,23.426,7.918c12.547,0,21.771-4.634,27.675-13.897l-14.072-4.517
		C725.727,257.345,721.35,259.572,717.009,259.572 M641.898,270.01v-2.846c2.503,2.759,7.136,4.137,13.897,4.137
		c7.272,0,12.891-1.77,16.858-5.308c3.969-3.54,5.954-8.083,5.954-13.633c0-3.909-1.048-7.261-3.14-10.058
		c-2.091-2.796-4.877-4.8-8.354-6.012c-3.479-1.209-8.718-2.422-15.714-3.635c-4.418-0.78-7.163-1.453-8.238-2.021
		c-1.078-0.567-1.613-1.396-1.613-2.492c0-2.893,2.619-4.339,7.856-4.339c7.114,0,11.259,1.973,12.433,5.921h12.958v-16.476h-12.958
		v1.964c-4.457-1.896-9.247-2.844-14.366-2.844c-6.336,0-11.418,1.613-15.245,4.836c-3.834,3.223-5.746,7.179-5.746,11.867
		c0,5,2.03,9.017,6.097,12.045c4.067,3.027,10.692,5.287,19.88,6.782c4.453,0.745,7.445,1.528,8.97,2.35
		c1.524,0.82,2.286,1.973,2.286,3.459c0,1.604-0.83,2.924-2.491,3.96c-1.661,1.035-3.979,1.553-6.948,1.553
		c-3.441,0-6.334-0.793-8.681-2.376c-2.344-1.582-3.575-3.7-3.694-6.361h-13.25v19.526H641.898z"/>
	<path fill="#FFFFFF" d="M1186.629,148.205c-4.222,3.949-8.014,5.923-11.376,5.923c-2.149,0-3.909-0.745-5.276-2.229
		c-1.37-1.485-2.054-3.264-2.054-5.336c0-2.306,0.851-4.065,2.55-5.276c1.703-1.212,3.588-1.819,5.661-1.819
		c2.619,0,6.117,1.37,10.495,4.105V148.205z M1204.748,151.487v-20.698c0-5.237-0.362-9.018-1.084-11.347
		c-0.724-2.326-1.966-4.465-3.725-6.42c-1.758-1.954-4.438-3.547-8.033-4.778c-3.596-1.233-8.132-1.848-13.604-1.848
		c-14.113,0-23.279,4.477-27.501,13.427l14.601,2.64c2.893-2.97,6.371-4.457,10.438-4.457c3.283,0,5.903,0.93,7.858,2.786
		c1.954,1.857,2.931,4.232,2.931,7.125v3.458c-4.925-1.914-9.285-2.873-13.074-2.873c-6.804,0-12.356,1.837-16.655,5.512
		c-4.3,3.675-6.45,8.229-6.45,13.663c0,5.395,2.044,9.695,6.128,12.9c4.083,3.207,8.942,4.809,14.571,4.809
		c5.434,0,10.595-1.768,15.48-5.307v4.485h27.267v-13.078H1204.748z M1107.355,164.565v-2.844c2.5,2.756,7.132,4.135,13.895,4.135
		c7.272,0,12.892-1.768,16.859-5.306c3.967-3.54,5.95-8.083,5.95-13.636c0-3.907-1.044-7.259-3.136-10.055
		c-2.092-2.796-4.877-4.8-8.355-6.012c-3.479-1.213-8.72-2.422-15.717-3.635c-4.419-0.78-7.165-1.455-8.238-2.022
		c-1.073-0.566-1.611-1.396-1.611-2.491c0-2.892,2.619-4.339,7.857-4.339c7.113,0,11.257,1.975,12.43,5.92h12.96v-16.475h-12.96
		v1.965c-4.457-1.897-9.245-2.843-14.365-2.843c-6.334,0-11.415,1.61-15.246,4.834c-3.833,3.223-5.745,7.179-5.745,11.867
		c0,5.001,2.031,9.018,6.099,12.045c4.066,3.028,10.691,5.29,19.878,6.783c4.456,0.746,7.447,1.527,8.971,2.35
		c1.525,0.822,2.285,1.975,2.285,3.46c0,1.603-0.829,2.923-2.492,3.958c-1.66,1.037-3.978,1.554-6.947,1.554
		c-3.44,0-6.332-0.792-8.679-2.375c-2.345-1.583-3.575-3.702-3.691-6.361h-13.253v19.526H1107.355z M1048.893,164.565v-2.844
		c2.504,2.756,7.136,4.135,13.896,4.135c7.273,0,12.892-1.768,16.86-5.306c3.968-3.54,5.95-8.083,5.95-13.636
		c0-3.907-1.046-7.259-3.134-10.055c-2.093-2.796-4.881-4.8-8.357-6.012c-3.481-1.213-8.719-2.422-15.716-3.635
		c-4.418-0.78-7.164-1.455-8.24-2.022c-1.073-0.566-1.61-1.396-1.61-2.491c0-2.892,2.618-4.339,7.857-4.339
		c7.113,0,11.258,1.975,12.429,5.92h12.961v-16.475h-12.961v1.965c-4.453-1.897-9.244-2.843-14.363-2.843
		c-6.334,0-11.417,1.61-15.247,4.834c-3.833,3.223-5.747,7.179-5.747,11.867c0,5.001,2.034,9.018,6.101,12.045
		c4.066,3.028,10.69,5.29,19.879,6.783c4.454,0.746,7.445,1.527,8.97,2.35c1.525,0.822,2.286,1.975,2.286,3.46
		c0,1.603-0.831,2.923-2.492,3.958c-1.662,1.037-3.978,1.554-6.949,1.554c-3.439,0-6.332-0.792-8.678-2.375
		c-2.345-1.583-3.576-3.702-3.694-6.361h-13.253v19.526H1048.893z M1002.275,148.205c-4.223,3.949-8.017,5.923-11.377,5.923
		c-2.15,0-3.909-0.745-5.276-2.229c-1.371-1.485-2.054-3.264-2.054-5.336c0-2.306,0.852-4.065,2.551-5.276
		c1.7-1.212,3.585-1.819,5.66-1.819c2.618,0,6.116,1.37,10.496,4.105V148.205z M1020.394,151.487v-20.698
		c0-5.237-0.361-9.018-1.084-11.347c-0.725-2.326-1.964-4.465-3.724-6.42c-1.761-1.954-4.439-3.547-8.035-4.778
		c-3.597-1.233-8.13-1.848-13.604-1.848c-14.112,0-23.279,4.477-27.5,13.427l14.601,2.64c2.892-2.97,6.371-4.457,10.435-4.457
		c3.286,0,5.906,0.93,7.86,2.786c1.953,1.857,2.933,4.232,2.933,7.125v3.458c-4.928-1.914-9.286-2.873-13.078-2.873
		c-6.802,0-12.353,1.837-16.65,5.512c-4.303,3.675-6.452,8.229-6.452,13.663c0,5.395,2.043,9.695,6.128,12.9
		c4.084,3.207,8.942,4.809,14.571,4.809c5.433,0,10.595-1.768,15.481-5.307v4.485h27.267v-13.078H1020.394z M933.709,148.205
		c-4.221,3.949-8.013,5.923-11.375,5.923c-2.15,0-3.91-0.745-5.277-2.229c-1.368-1.485-2.054-3.264-2.054-5.336
		c0-2.306,0.851-4.065,2.552-5.276c1.701-1.212,3.587-1.819,5.657-1.819c2.619,0,6.118,1.37,10.497,4.105V148.205z M951.828,151.487
		v-20.698c0-5.237-0.362-9.018-1.085-11.347c-0.724-2.326-1.965-4.465-3.724-6.42c-1.758-1.954-4.436-3.547-8.031-4.778
		c-3.6-1.233-8.134-1.848-13.604-1.848c-14.113,0-23.28,4.477-27.505,13.427l14.603,2.64c2.893-2.97,6.371-4.457,10.438-4.457
		c3.282,0,5.901,0.93,7.855,2.786c1.955,1.857,2.933,4.232,2.933,7.125v3.458c-4.924-1.914-9.284-2.873-13.075-2.873
		c-6.804,0-12.353,1.837-16.653,5.512c-4.299,3.675-6.451,8.229-6.451,13.663c0,5.395,2.041,9.695,6.127,12.9
		c4.085,3.207,8.943,4.809,14.574,4.809c5.432,0,10.592-1.768,15.479-5.307v4.485h27.268v-13.078H951.828z M858.168,164.565v-13.078
		h-8.092v-26.735c3.752-2.386,6.977-3.579,9.675-3.579c1.914,0,3.351,0.5,4.309,1.496c0.958,0.996,1.438,2.825,1.438,5.482v36.414
		h26.446v-13.078h-8.326v-24.158c0-13.954-5.806-20.933-17.416-20.933c-5.043,0-10.419,1.993-16.125,5.981V83h-27.209v13.076h9.148
		v55.411h-9.148v13.078H858.168z M801.195,151.487v-6.976c0-4.692,0.937-8.756,2.814-12.197c1.876-3.439,4.259-5.666,7.151-6.685
		c2.893-1.017,6.627-1.524,11.201-1.524v-17.123c-1.136-0.037-2.112-0.057-2.934-0.057c-4.925,0-9.195,1.515-12.812,4.542
		c-3.617,3.031-5.932,6.617-6.947,10.761v-14.425h-26.447v13.076h9.851v30.607h-10.494v13.078h39.931v-13.078H801.195z
		 M740.85,148.205c-4.223,3.949-8.014,5.923-11.374,5.923c-2.151,0-3.911-0.745-5.28-2.229c-1.366-1.485-2.05-3.264-2.05-5.336
		c0-2.306,0.85-4.065,2.552-5.276c1.698-1.212,3.584-1.819,5.657-1.819c2.616,0,6.117,1.37,10.495,4.105V148.205z M758.97,151.487
		v-20.698c0-5.237-0.363-9.018-1.084-11.347c-0.727-2.326-1.965-4.465-3.725-6.42c-1.759-1.954-4.438-3.547-8.033-4.778
		c-3.596-1.233-8.132-1.848-13.604-1.848c-14.112,0-23.28,4.477-27.501,13.427l14.598,2.64c2.895-2.97,6.374-4.457,10.439-4.457
		c3.282,0,5.902,0.93,7.856,2.786c1.958,1.857,2.933,4.232,2.933,7.125v3.458c-4.925-1.914-9.285-2.873-13.075-2.873
		c-6.801,0-12.354,1.837-16.653,5.512c-4.3,3.675-6.45,8.229-6.45,13.663c0,5.395,2.042,9.695,6.128,12.9
		c4.083,3.207,8.941,4.809,14.57,4.809c5.435,0,10.594-1.768,15.48-5.307v4.485h27.269v-13.078H758.97z M656.852,96.779h3.989
		c4.259,0,7.329,0.245,9.204,0.734c1.877,0.489,3.537,1.778,4.985,3.869c1.446,2.091,2.17,4.624,2.17,7.594
		c0,3.519-1.049,6.46-3.138,8.824c-2.091,2.366-6.772,3.547-14.043,3.547h-3.168V96.779z M656.852,150.785v-15.834h7.801
		c5.784,0,10.604-0.36,14.453-1.083c3.851-0.724,7.272-2.072,10.264-4.046c2.989-1.975,5.441-4.808,7.359-8.504
		c1.913-3.692,2.871-7.807,2.871-12.342c0-7.935-2.726-14.247-8.18-18.938C685.965,85.343,678.235,83,668.229,83h-42.982v13.779
		h10.381v54.006h-10.381v13.78h42.982v-13.78H656.852z"/>
</g>
</svg>
